<svg xmlns="http://www.w3.org/2000/svg" xmlns:svg="http://www.w3.org/2000/svg" id="svg3161" width="744.094" height="1052.362" version="1.1"><metadata id="metadata3166"/><g id="layer1"><flowRoot id="flowRoot3957" xml:space="preserve" style="font-style:normal;font-weight:400;line-height:.01%;font-family:sans-serif;letter-spacing:0;word-spacing:0;fill:#fff;fill-opacity:1;stroke:none"><flowRegion id="flowRegion3959" style="font-family:sans-serif"><rect id="rect3961" width="646.498" height="662.66" x="-1325.32" y="648.301" style="font-size:144px;font-family:sans-serif;fill:#fff;fill-opacity:1"/></flowRegion><flowPara id="flowPara3963" style="font-size:144px;line-height:1.25;font-family:sans-serif">100111011</flowPara></flowRoot><flowRoot id="flowRoot3965" xml:space="preserve" style="font-style:normal;font-weight:400;line-height:.01%;font-family:sans-serif;letter-spacing:0;word-spacing:0;fill:#000;fill-opacity:1;stroke:none"><flowRegion id="flowRegion3967" style="font-family:sans-serif"><rect id="rect3969" width="654.579" height="686.904" x="-1317.239" y="595.773" style="font-family:sans-serif"/></flowRegion><flowPara id="flowPara3971" style="font-size:144px;line-height:1.25;font-family:sans-serif">3231211021112121</flowPara></flowRoot><g id="g4309" transform="translate(3.6931238,46)"><g id="g4168" transform="matrix(0.45098835,-0.00383802,0.00383802,0.45098835,-467.63653,-1211.0052)"><circle id="path4096" cx="1934.286" cy="3249.505" r="334.286" style="fill:none;fill-opacity:1;stroke:#fff;stroke-width:50;stroke-linecap:round;stroke-linejoin:round;stroke-miterlimit:4;stroke-dasharray:none;stroke-opacity:1" transform="translate(-102.30835,-27.185059)"/><path style="fill:none;stroke:#fff;stroke-width:50;stroke-linecap:butt;stroke-linejoin:miter;stroke-miterlimit:4;stroke-dasharray:none;stroke-opacity:1" id="path4100" d="m 1830.0001,2831.4311 0,115.0769"/><path id="path4108" d="m 1441.3902,3224.3267 115.0769,0" style="fill:none;stroke:#fff;stroke-width:50;stroke-linecap:butt;stroke-linejoin:miter;stroke-miterlimit:4;stroke-dasharray:none;stroke-opacity:1"/><path style="fill:none;stroke:#fff;stroke-width:50;stroke-linecap:butt;stroke-linejoin:miter;stroke-miterlimit:4;stroke-dasharray:none;stroke-opacity:1" id="path4110" d="m 1834.2858,3612.9366 0,-115.0769"/><path id="path4112" d="m 2222.8957,3220.041 -115.0769,0" style="fill:none;stroke:#fff;stroke-width:50;stroke-linecap:butt;stroke-linejoin:miter;stroke-miterlimit:4;stroke-dasharray:none;stroke-opacity:1"/></g><g id="g3956" transform="matrix(0.31989884,0.31791501,-0.31791501,0.31989884,1662.3441,2083.0665)"><g id="g3958" transform="matrix(0.89190599,-0.03664966,0.03664966,0.89190599,-6666.9428,-3698.2166)"><g id="g3960" transform="matrix(0.74748288,0.66428106,-0.66428106,0.74748288,629.09954,-1479.1317)"><path style="fill:#fff;fill-opacity:1;stroke:#fff;stroke-width:30;stroke-linecap:butt;stroke-linejoin:miter;stroke-miterlimit:4;stroke-dasharray:none;stroke-opacity:1" id="path3962" d="m 4040.1964,2588.5464 c 0,0 53.7071,-12.0035 122.3866,119.8197 18.8112,36.1061 2.9086,106.3603 -14.7434,122.5618 -4.6287,4.2483 -145.9118,-169.7925 -145.0889,-172.888 2.0099,-7.56 -34.3676,30.0015 -37.9568,31.3735 -8.3568,-3.4891 145.6479,172.7523 137.6719,178.622 -25.5019,18.7671 -90.2912,15.7949 -122.8708,-10.8511 -115.0594,-94.1039 -92.3624,-144.2374 -92.3624,-144.2374 z"/><path style="fill:none;stroke:#fff;stroke-width:30;stroke-linecap:butt;stroke-linejoin:miter;stroke-miterlimit:4;stroke-dasharray:none;stroke-opacity:1" id="path3964" d="m 4088.8931,2601.063 c 0,0 18.0334,-33.0127 18.789,-51.1658 0.5953,-14.3092 -17.1186,-45.2418 -17.1186,-45.2418"/><path style="fill:none;stroke:#fff;stroke-width:30;stroke-linecap:butt;stroke-linejoin:miter;stroke-miterlimit:4;stroke-dasharray:none;stroke-opacity:1" id="path3966" d="m 4132.918,2651.1938 64.0438,-50.1318"/><path style="fill:none;stroke:#fff;stroke-width:30;stroke-linecap:butt;stroke-linejoin:miter;stroke-miterlimit:4;stroke-dasharray:none;stroke-opacity:1" id="path3968" d="m 4164.6703,2705.446 c 0,0 33.7902,-13.267 51.7153,-10.806 17.9252,2.4611 48.887,24.0385 48.887,24.0385"/><path id="path3970" d="m 3889.3296,2763.3615 c 0,0 -35.995,10.9269 -53.9211,7.967 -14.1302,-2.3334 -40.8035,-25.9796 -40.8035,-25.9796" style="fill:none;stroke:#fff;stroke-width:30;stroke-linecap:butt;stroke-linejoin:miter;stroke-miterlimit:4;stroke-dasharray:none;stroke-opacity:1"/><path id="path3972" d="m 3929.436,2816.6791 -62.1318,52.4828" style="fill:none;stroke:#fff;stroke-width:30;stroke-linecap:butt;stroke-linejoin:miter;stroke-miterlimit:4;stroke-dasharray:none;stroke-opacity:1"/><path id="path3974" d="m 3976.0785,2858.8217 c 0,0 -19.8751,30.3772 -21.1189,48.4276 -1.2437,18.0506 13.5708,52.76 13.5708,52.76" style="fill:none;stroke:#fff;stroke-width:30;stroke-linecap:butt;stroke-linejoin:miter;stroke-miterlimit:4;stroke-dasharray:none;stroke-opacity:1"/></g></g><g id="g3976" transform="matrix(0.99996802,-0.00799774,0.00799774,0.99996802,5.3215017,-36.586765)"><g id="g3978" transform="matrix(0.85611151,0.0022983,-0.0022983,0.85611151,-8353.4517,-3238.4429)"><path style="fill:#fff;fill-opacity:1;stroke:none" id="path3980" d="m -4813.2145,-1016.3878 a 103.92857,30.535715 0 0 1 -51.9643,26.44469 103.92857,30.535715 0 0 1 -103.9286,0 103.92857,30.535715 0 0 1 -51.9642,-26.44469 l 103.9285,0 z" transform="matrix(-0.96100274,-0.00757403,0.03169641,-1.9755784,-672.2633,559.16867)"/></g><g id="g3982" transform="matrix(0.9989276,-0.04629966,0.04629966,0.9989276,48.16036,-225.4029)"><g id="g3984" transform="matrix(0.99969214,0.02481181,-0.02481181,0.99969214,-28.086347,121.7935)"><path transform="matrix(0.85611151,0.0022983,-0.0022983,0.85611151,-8353.4517,-3238.4429)" style="fill:#fff;fill-opacity:1;stroke:#fff;stroke-width:30;stroke-linecap:butt;stroke-linejoin:miter;stroke-miterlimit:4;stroke-dasharray:none;stroke-opacity:1" id="path3986" d="m 3960.3677,2570.1662 c 0,0 34.7698,-59.0487 59.3571,-58.1465 23.7285,0.8707 51.5613,59.9789 51.5613,59.9789"/><g id="g3988" transform="matrix(0.66883656,-0.59118284,0.59118284,0.66883656,-8046.2411,-1973.2729)"><path style="color:#000;font-style:normal;font-variant:normal;font-weight:400;font-stretch:normal;font-size:medium;line-height:normal;font-family:Sans;-inkscape-font-specification:Sans;text-indent:0;text-align:start;text-decoration:none;text-decoration-line:none;letter-spacing:normal;word-spacing:normal;text-transform:none;direction:ltr;block-progression:tb;writing-mode:lr-tb;baseline-shift:baseline;text-anchor:start;display:inline;overflow:visible;visibility:visible;fill:#fff;fill-opacity:1;stroke:none;stroke-width:25;marker:none;enable-background:accumulate" id="path3990" d="m 2010.228,3062.2334 c -12.4929,-0.831 -26.7873,2.0545 -44.5625,9.0626 l 9.1562,23.25 c 15.6297,-6.1622 26.5273,-7.8555 33.75,-7.375 7.2228,0.4804 11.0497,2.5719 15.0626,6.25 8.0256,7.356 14.0854,23.8866 27.25,39.1874 l 18.9374,-16.3124 c -8.891,-10.3338 -14.4608,-27.7285 -29.2812,-41.3126 -7.4102,-6.792 -17.8196,-11.9189 -30.3125,-12.75 z"/><path id="path3992" d="m 1966.3786,3021.1066 c 1.6296,12.414 -0.3343,26.8639 -6.1893,45.0515 l -23.7888,-7.648 c 5.1483,-15.9924 6.14,-26.976 5.1978,-34.1531 -0.9421,-7.1772 -3.2744,-10.8623 -7.202,-14.6313 -7.855,-7.5379 -24.7399,-12.5263 -40.8525,-24.6837 l 15.0657,-19.9435 c 10.8822,8.2108 28.5979,12.6548 43.1035,26.5746 7.2528,6.9599 13.0359,17.0195 14.6656,29.4335 z" style="color:#000;font-style:normal;font-variant:normal;font-weight:400;font-stretch:normal;font-size:medium;line-height:normal;font-family:Sans;-inkscape-font-specification:Sans;text-indent:0;text-align:start;text-decoration:none;text-decoration-line:none;letter-spacing:normal;word-spacing:normal;text-transform:none;direction:ltr;block-progression:tb;writing-mode:lr-tb;baseline-shift:baseline;text-anchor:start;display:inline;overflow:visible;visibility:visible;fill:#fff;fill-opacity:1;stroke:none;stroke-width:25;marker:none;enable-background:accumulate"/></g></g></g></g></g></g><g id="g4013" transform="translate(-917.21851,-872.7718)"><g id="g4015" transform="translate(-235.25593,342.41022)"><g id="g4215" transform="matrix(0.70930271,0.70490401,-0.70490401,0.70930271,6276.3523,3504.7289)"><g id="g4217" transform="matrix(1.2129068,0,0,1.2129068,1045.888,190.07481)"><g id="g4219" transform="matrix(0.99996802,-0.00799774,0.00799774,0.99996802,5.3215017,-36.586765)"><g id="g4223" transform="translate(13.635149,-167.10762)"><path id="path4225" d="m 2268.5715,3249.5051 a 334.28571,334.28571 0 0 1 -334.2857,334.2857 334.28571,334.28571 0 0 1 -334.2857,-334.2857 334.28571,334.28571 0 0 1 334.2857,-334.2857 334.28571,334.28571 0 0 1 334.2857,334.2857 z" transform="matrix(0.58449796,-0.58146861,0.58146861,0.58449796,-7936.4207,-1665.9947)" style="fill:none;stroke:#fff;stroke-width:50;stroke-linecap:round;stroke-linejoin:round;stroke-miterlimit:4;stroke-opacity:1;stroke-dasharray:none"/><path id="path4227" d="m 1830.0001,2831.4311 0,115.0769" transform="matrix(0.58449796,-0.58146861,0.58146861,0.58449796,-7860.8144,-1709.5942)" style="fill:#fff;fill-opacity:1;stroke:#fff;stroke-width:50;stroke-linecap:butt;stroke-linejoin:miter;stroke-miterlimit:4;stroke-opacity:1;stroke-dasharray:none"/><path transform="matrix(0.58449796,-0.58146861,0.58146861,0.58449796,-7860.8144,-1709.5942)" style="fill:#fff;fill-opacity:1;stroke:#fff;stroke-width:50;stroke-linecap:butt;stroke-linejoin:miter;stroke-miterlimit:4;stroke-opacity:1;stroke-dasharray:none" id="path4229" d="m 1441.3902,3224.3267 115.0769,0"/><path id="path4231" d="m 1834.2858,3612.9366 0,-115.0769" transform="matrix(0.58449796,-0.58146861,0.58146861,0.58449796,-7860.8144,-1709.5942)" style="fill:#fff;fill-opacity:1;stroke:#fff;stroke-width:50;stroke-linecap:butt;stroke-linejoin:miter;stroke-miterlimit:4;stroke-opacity:1;stroke-dasharray:none"/><path transform="matrix(0.58449796,-0.58146861,0.58146861,0.58449796,-7860.8144,-1709.5942)" style="fill:#fff;fill-opacity:1;stroke:#fff;stroke-width:50;stroke-linecap:butt;stroke-linejoin:miter;stroke-miterlimit:4;stroke-opacity:1;stroke-dasharray:none" id="path4233" d="m 2222.8957,3220.041 -115.0769,0"/><g id="g4235"><g id="g4237" transform="matrix(0.88489996,0,0,0.88489996,-564.80598,-105.68292)"><g id="g4239" transform="matrix(0.89217058,-0.02951525,0.02951525,0.89217058,-6642.7661,-3714.8758)"><g id="g4241" transform="matrix(0.74748288,0.66428106,-0.66428106,0.74748288,629.09954,-1479.1317)"><path style="fill:#fff;fill-opacity:1;stroke:#fff;stroke-width:30;stroke-linecap:butt;stroke-linejoin:miter;stroke-miterlimit:4;stroke-opacity:1;stroke-dasharray:none" id="path4243" d="m 4040.1964,2588.5464 c 0,0 53.7071,-12.0035 122.3866,119.8197 18.8112,36.1061 2.9086,106.3603 -14.7434,122.5618 -4.6287,4.2483 -145.9118,-169.7925 -145.0889,-172.888 2.0099,-7.56 -34.3676,30.0015 -37.9568,31.3735 -8.3568,-3.4891 145.6479,172.7523 137.6719,178.622 -25.5019,18.7671 -90.2912,15.7949 -122.8708,-10.8511 -115.0594,-94.1039 -92.3624,-144.2374 -92.3624,-144.2374 z"/><path style="fill:none;stroke:#fff;stroke-width:30;stroke-linecap:butt;stroke-linejoin:miter;stroke-miterlimit:4;stroke-opacity:1;stroke-dasharray:none" id="path4245" d="m 4088.8931,2601.063 c 0,0 18.0334,-33.0127 18.789,-51.1658 0.5953,-14.3092 -17.1186,-45.2418 -17.1186,-45.2418"/><path style="fill:none;stroke:#fff;stroke-width:30;stroke-linecap:butt;stroke-linejoin:miter;stroke-miterlimit:4;stroke-opacity:1;stroke-dasharray:none" id="path4247" d="m 4132.918,2651.1938 64.0438,-50.1318"/><path style="fill:none;stroke:#fff;stroke-width:30;stroke-linecap:butt;stroke-linejoin:miter;stroke-miterlimit:4;stroke-opacity:1;stroke-dasharray:none" id="path4249" d="m 4164.6703,2705.446 c 0,0 33.7902,-13.267 51.7153,-10.806 17.9252,2.4611 48.887,24.0385 48.887,24.0385"/><path id="path4251" d="m 3889.3296,2763.3615 c 0,0 -35.995,10.9269 -53.9211,7.967 -14.1302,-2.3334 -40.8035,-25.9796 -40.8035,-25.9796" style="fill:none;stroke:#fff;stroke-width:30;stroke-linecap:butt;stroke-linejoin:miter;stroke-miterlimit:4;stroke-opacity:1;stroke-dasharray:none"/><path id="path4253" d="m 3929.436,2816.6791 -62.1318,52.4828" style="fill:none;stroke:#fff;stroke-width:30;stroke-linecap:butt;stroke-linejoin:miter;stroke-miterlimit:4;stroke-opacity:1;stroke-dasharray:none"/><path id="path4255" d="m 3976.0785,2858.8217 c 0,0 -19.8751,30.3772 -21.1189,48.4276 -1.2437,18.0506 13.5708,52.76 13.5708,52.76" style="fill:none;stroke:#fff;stroke-width:30;stroke-linecap:butt;stroke-linejoin:miter;stroke-miterlimit:4;stroke-opacity:1;stroke-dasharray:none"/></g></g><g id="g4257"><path style="fill:#fff;fill-opacity:1;stroke:none" id="path4259" d="m -4813.2145,-1016.3878 a 103.92857,30.535715 0 0 1 -51.9643,26.44469 103.92857,30.535715 0 0 1 -103.9286,0 103.92857,30.535715 0 0 1 -51.9642,-26.44469 l 103.9285,0 z" transform="matrix(-0.8227081,-0.00869289,0.03167613,-1.6912426,-8930.2692,-2761.2773)"/><g id="g4261" transform="matrix(0.9989276,-0.04629966,0.04629966,0.9989276,48.16036,-225.4029)"><g id="g4263" transform="matrix(0.99969214,0.02481181,-0.02481181,0.99969214,-28.086347,121.7935)"><path id="path4265" d="m 3960.3677,2570.1662 c 0,0 34.7698,-59.0487 59.3571,-58.1465 23.7285,0.8707 51.5613,59.9789 51.5613,59.9789" style="fill:#fff;fill-opacity:1;stroke:#fff;stroke-width:30;stroke-linecap:butt;stroke-linejoin:miter;stroke-miterlimit:4;stroke-opacity:1;stroke-dasharray:none" transform="matrix(0.85611151,0.0022983,-0.0022983,0.85611151,-8353.4517,-3238.4429)"/><g id="g4267" transform="matrix(0.66883656,-0.59118284,0.59118284,0.66883656,-8046.2411,-1973.2729)"><path id="path4269" d="m 2010.228,3062.2334 c -12.4929,-0.831 -26.7873,2.0545 -44.5625,9.0626 l 9.1562,23.25 c 15.6297,-6.1622 26.5273,-7.8555 33.75,-7.375 7.2228,0.4804 11.0497,2.5719 15.0626,6.25 8.0256,7.356 14.0854,23.8866 27.25,39.1874 l 18.9374,-16.3124 c -8.891,-10.3338 -14.4608,-27.7285 -29.2812,-41.3126 -7.4102,-6.792 -17.8196,-11.9189 -30.3125,-12.75 z" style="font-size:medium;font-style:normal;font-variant:normal;font-weight:400;font-stretch:normal;text-indent:0;text-align:start;text-decoration:none;line-height:normal;letter-spacing:normal;word-spacing:normal;text-transform:none;direction:ltr;block-progression:tb;writing-mode:lr-tb;text-anchor:start;baseline-shift:baseline;color:#000;fill:#fff;fill-opacity:1;stroke:none;stroke-width:25;marker:none;visibility:visible;display:inline;overflow:visible;enable-background:accumulate;font-family:Sans;-inkscape-font-specification:Sans"/><path style="font-size:medium;font-style:normal;font-variant:normal;font-weight:400;font-stretch:normal;text-indent:0;text-align:start;text-decoration:none;line-height:normal;letter-spacing:normal;word-spacing:normal;text-transform:none;direction:ltr;block-progression:tb;writing-mode:lr-tb;text-anchor:start;baseline-shift:baseline;color:#000;fill:#fff;fill-opacity:1;stroke:none;stroke-width:25;marker:none;visibility:visible;display:inline;overflow:visible;enable-background:accumulate;font-family:Sans;-inkscape-font-specification:Sans" id="path4271" d="m 1966.3786,3021.1066 c 1.6296,12.414 -0.3343,26.8639 -6.1893,45.0515 l -23.7888,-7.648 c 5.1483,-15.9924 6.14,-26.976 5.1978,-34.1531 -0.9421,-7.1772 -3.2744,-10.8623 -7.202,-14.6313 -7.855,-7.5379 -24.7399,-12.5263 -40.8525,-24.6837 l 15.0657,-19.9435 c 10.8822,8.2108 28.5979,12.6548 43.1035,26.5746 7.2528,6.9599 13.0359,17.0195 14.6656,29.4335 z"/></g></g></g></g></g></g></g></g></g></g><g id="g3201" transform="matrix(0.70930271,0.70490401,-0.70490401,0.70930271,2692.5787,3810.1459)"><g id="g3203" transform="matrix(1.2129068,0,0,1.2129068,1045.888,190.07481)"><g id="g3205" transform="matrix(0.99996802,-0.00799774,0.00799774,0.99996802,5.3215017,-36.586765)"><g id="g3209" transform="translate(13.635149,-167.10762)"><path id="path3211" d="m 2268.5715,3249.5051 a 334.28571,334.28571 0 0 1 -334.2857,334.2857 334.28571,334.28571 0 0 1 -334.2857,-334.2857 334.28571,334.28571 0 0 1 334.2857,-334.2857 334.28571,334.28571 0 0 1 334.2857,334.2857 z" transform="matrix(0.58449796,-0.58146861,0.58146861,0.58449796,-7936.4207,-1665.9947)" style="fill:none;stroke:#fff;stroke-width:50;stroke-linecap:round;stroke-linejoin:round;stroke-miterlimit:4;stroke-opacity:1;stroke-dasharray:none"/><path id="path3213" d="m 1830.0001,2831.4311 0,115.0769" transform="matrix(0.58449796,-0.58146861,0.58146861,0.58449796,-7860.8144,-1709.5942)" style="fill:#fff;fill-opacity:1;stroke:#fff;stroke-width:50;stroke-linecap:butt;stroke-linejoin:miter;stroke-miterlimit:4;stroke-opacity:1;stroke-dasharray:none"/><path transform="matrix(0.58449796,-0.58146861,0.58146861,0.58449796,-7860.8144,-1709.5942)" style="fill:#fff;fill-opacity:1;stroke:#fff;stroke-width:50;stroke-linecap:butt;stroke-linejoin:miter;stroke-miterlimit:4;stroke-opacity:1;stroke-dasharray:none" id="path3215" d="m 1441.3902,3224.3267 115.0769,0"/><path id="path3217" d="m 1834.2858,3612.9366 0,-115.0769" transform="matrix(0.58449796,-0.58146861,0.58146861,0.58449796,-7860.8144,-1709.5942)" style="fill:#fff;fill-opacity:1;stroke:#fff;stroke-width:50;stroke-linecap:butt;stroke-linejoin:miter;stroke-miterlimit:4;stroke-opacity:1;stroke-dasharray:none"/><path transform="matrix(0.58449796,-0.58146861,0.58146861,0.58449796,-7860.8144,-1709.5942)" style="fill:#fff;fill-opacity:1;stroke:#fff;stroke-width:50;stroke-linecap:butt;stroke-linejoin:miter;stroke-miterlimit:4;stroke-opacity:1;stroke-dasharray:none" id="path3219" d="m 2222.8957,3220.041 -115.0769,0"/><g id="g3221"><g id="g3223" transform="matrix(0.88489996,0,0,0.88489996,-564.80598,-105.68292)"><g id="g3225" transform="matrix(0.89217058,-0.02951525,0.02951525,0.89217058,-6642.7661,-3714.8758)"><g id="g3227" transform="matrix(0.74748288,0.66428106,-0.66428106,0.74748288,629.09954,-1479.1317)"><path style="fill:#fff;fill-opacity:1;stroke:#fff;stroke-width:30;stroke-linecap:butt;stroke-linejoin:miter;stroke-miterlimit:4;stroke-opacity:1;stroke-dasharray:none" id="path3229" d="m 4040.1964,2588.5464 c 0,0 53.7071,-12.0035 122.3866,119.8197 18.8112,36.1061 2.9086,106.3603 -14.7434,122.5618 -4.6287,4.2483 -145.9118,-169.7925 -145.0889,-172.888 2.0099,-7.56 -34.3676,30.0015 -37.9568,31.3735 -8.3568,-3.4891 145.6479,172.7523 137.6719,178.622 -25.5019,18.7671 -90.2912,15.7949 -122.8708,-10.8511 -115.0594,-94.1039 -92.3624,-144.2374 -92.3624,-144.2374 z"/><path style="fill:none;stroke:#fff;stroke-width:30;stroke-linecap:butt;stroke-linejoin:miter;stroke-miterlimit:4;stroke-opacity:1;stroke-dasharray:none" id="path3231" d="m 4088.8931,2601.063 c 0,0 18.0334,-33.0127 18.789,-51.1658 0.5953,-14.3092 -17.1186,-45.2418 -17.1186,-45.2418"/><path style="fill:none;stroke:#fff;stroke-width:30;stroke-linecap:butt;stroke-linejoin:miter;stroke-miterlimit:4;stroke-opacity:1;stroke-dasharray:none" id="path3233" d="m 4132.918,2651.1938 64.0438,-50.1318"/><path style="fill:none;stroke:#fff;stroke-width:30;stroke-linecap:butt;stroke-linejoin:miter;stroke-miterlimit:4;stroke-opacity:1;stroke-dasharray:none" id="path3235" d="m 4164.6703,2705.446 c 0,0 33.7902,-13.267 51.7153,-10.806 17.9252,2.4611 48.887,24.0385 48.887,24.0385"/><path id="path3237" d="m 3889.3296,2763.3615 c 0,0 -35.995,10.9269 -53.9211,7.967 -14.1302,-2.3334 -40.8035,-25.9796 -40.8035,-25.9796" style="fill:none;stroke:#fff;stroke-width:30;stroke-linecap:butt;stroke-linejoin:miter;stroke-miterlimit:4;stroke-opacity:1;stroke-dasharray:none"/><path id="path3239" d="m 3929.436,2816.6791 -62.1318,52.4828" style="fill:none;stroke:#fff;stroke-width:30;stroke-linecap:butt;stroke-linejoin:miter;stroke-miterlimit:4;stroke-opacity:1;stroke-dasharray:none"/><path id="path3241" d="m 3976.0785,2858.8217 c 0,0 -19.8751,30.3772 -21.1189,48.4276 -1.2437,18.0506 13.5708,52.76 13.5708,52.76" style="fill:none;stroke:#fff;stroke-width:30;stroke-linecap:butt;stroke-linejoin:miter;stroke-miterlimit:4;stroke-opacity:1;stroke-dasharray:none"/></g></g><g id="g3243"><path style="fill:#fff;fill-opacity:1;stroke:none" id="path3245" d="m -4813.2145,-1016.3878 a 103.92857,30.535715 0 0 1 -51.9643,26.44469 103.92857,30.535715 0 0 1 -103.9286,0 103.92857,30.535715 0 0 1 -51.9642,-26.44469 l 103.9285,0 z" transform="matrix(-0.8227081,-0.00869289,0.03167613,-1.6912426,-8930.2692,-2761.2773)"/><g id="g3247" transform="matrix(0.9989276,-0.04629966,0.04629966,0.9989276,48.16036,-225.4029)"><g id="g3249" transform="matrix(0.99969214,0.02481181,-0.02481181,0.99969214,-28.086347,121.7935)"><path id="path3251" d="m 3960.3677,2570.1662 c 0,0 34.7698,-59.0487 59.3571,-58.1465 23.7285,0.8707 51.5613,59.9789 51.5613,59.9789" style="fill:#fff;fill-opacity:1;stroke:#fff;stroke-width:30;stroke-linecap:butt;stroke-linejoin:miter;stroke-miterlimit:4;stroke-opacity:1;stroke-dasharray:none" transform="matrix(0.85611151,0.0022983,-0.0022983,0.85611151,-8353.4517,-3238.4429)"/><g id="g3253" transform="matrix(0.66883656,-0.59118284,0.59118284,0.66883656,-8046.2411,-1973.2729)"><path id="path3255" d="m 2010.228,3062.2334 c -12.4929,-0.831 -26.7873,2.0545 -44.5625,9.0626 l 9.1562,23.25 c 15.6297,-6.1622 26.5273,-7.8555 33.75,-7.375 7.2228,0.4804 11.0497,2.5719 15.0626,6.25 8.0256,7.356 14.0854,23.8866 27.25,39.1874 l 18.9374,-16.3124 c -8.891,-10.3338 -14.4608,-27.7285 -29.2812,-41.3126 -7.4102,-6.792 -17.8196,-11.9189 -30.3125,-12.75 z" style="font-size:medium;font-style:normal;font-variant:normal;font-weight:400;font-stretch:normal;text-indent:0;text-align:start;text-decoration:none;line-height:normal;letter-spacing:normal;word-spacing:normal;text-transform:none;direction:ltr;block-progression:tb;writing-mode:lr-tb;text-anchor:start;baseline-shift:baseline;color:#000;fill:#fff;fill-opacity:1;stroke:none;stroke-width:25;marker:none;visibility:visible;display:inline;overflow:visible;enable-background:accumulate;font-family:Sans;-inkscape-font-specification:Sans"/><path style="font-size:medium;font-style:normal;font-variant:normal;font-weight:400;font-stretch:normal;text-indent:0;text-align:start;text-decoration:none;line-height:normal;letter-spacing:normal;word-spacing:normal;text-transform:none;direction:ltr;block-progression:tb;writing-mode:lr-tb;text-anchor:start;baseline-shift:baseline;color:#000;fill:#fff;fill-opacity:1;stroke:none;stroke-width:25;marker:none;visibility:visible;display:inline;overflow:visible;enable-background:accumulate;font-family:Sans;-inkscape-font-specification:Sans" id="path3257" d="m 1966.3786,3021.1066 c 1.6296,12.414 -0.3343,26.8639 -6.1893,45.0515 l -23.7888,-7.648 c 5.1483,-15.9924 6.14,-26.976 5.1978,-34.1531 -0.9421,-7.1772 -3.2744,-10.8623 -7.202,-14.6313 -7.855,-7.5379 -24.7399,-12.5263 -40.8525,-24.6837 l 15.0657,-19.9435 c 10.8822,8.2108 28.5979,12.6548 43.1035,26.5746 7.2528,6.9599 13.0359,17.0195 14.6656,29.4335 z"/></g></g></g></g></g></g></g></g></g></g></g></g><g id="g4281" transform="translate(5.5306042,0)"><g id="g3431" transform="matrix(0.45098835,-0.00383802,0.00383802,0.45098835,-469.47409,-714.17259)"><circle id="circle3433" cx="1934.286" cy="3249.505" transform="translate(-102.30835,-27.185059)" style="fill:none;fill-opacity:1;stroke:#2280c3;stroke-width:50;stroke-linecap:round;stroke-linejoin:round;stroke-miterlimit:4;stroke-dasharray:none;stroke-opacity:1" r="334.286"/><path id="path3435" d="m 1830.0001,2831.4311 0,115.0769" style="fill:none;stroke:#2280c3;stroke-width:50;stroke-linecap:butt;stroke-linejoin:miter;stroke-miterlimit:4;stroke-dasharray:none;stroke-opacity:1"/><path style="fill:none;stroke:#2280c3;stroke-width:50;stroke-linecap:butt;stroke-linejoin:miter;stroke-miterlimit:4;stroke-dasharray:none;stroke-opacity:1" id="path3437" d="m 1441.3902,3224.3267 115.0769,0"/><path id="path3439" d="m 1834.2858,3612.9366 0,-115.0769" style="fill:none;stroke:#2280c3;stroke-width:50;stroke-linecap:butt;stroke-linejoin:miter;stroke-miterlimit:4;stroke-dasharray:none;stroke-opacity:1"/><path style="fill:none;stroke:#2280c3;stroke-width:50;stroke-linecap:butt;stroke-linejoin:miter;stroke-miterlimit:4;stroke-dasharray:none;stroke-opacity:1" id="path3441" d="m 2222.8957,3220.041 -115.0769,0"/></g><g id="g3443" transform="matrix(0.31989884,0.31791501,-0.31791501,0.31989884,1660.5065,2579.8991)"><g id="g3445" transform="matrix(0.89190599,-0.03664966,0.03664966,0.89190599,-6666.9428,-3698.2166)"><g id="g3447" transform="matrix(0.74748288,0.66428106,-0.66428106,0.74748288,629.09954,-1479.1317)"><path id="path3449" d="m 4040.1964,2588.5464 c 0,0 53.7071,-12.0035 122.3866,119.8197 18.8112,36.1061 2.9086,106.3603 -14.7434,122.5618 -4.6287,4.2483 -145.9118,-169.7925 -145.0889,-172.888 2.0099,-7.56 -34.3676,30.0015 -37.9568,31.3735 -8.3568,-3.4891 145.6479,172.7523 137.6719,178.622 -25.5019,18.7671 -90.2912,15.7949 -122.8708,-10.8511 -115.0594,-94.1039 -92.3624,-144.2374 -92.3624,-144.2374 z" style="fill:#2280c3;fill-opacity:1;stroke:#2280c3;stroke-width:30;stroke-linecap:butt;stroke-linejoin:miter;stroke-miterlimit:4;stroke-dasharray:none;stroke-opacity:1"/><path id="path3451" d="m 4088.8931,2601.063 c 0,0 18.0334,-33.0127 18.789,-51.1658 0.5953,-14.3092 -17.1186,-45.2418 -17.1186,-45.2418" style="fill:none;stroke:#2280c3;stroke-width:30;stroke-linecap:butt;stroke-linejoin:miter;stroke-miterlimit:4;stroke-dasharray:none;stroke-opacity:1"/><path id="path3453" d="m 4132.918,2651.1938 64.0438,-50.1318" style="fill:none;stroke:#2280c3;stroke-width:30;stroke-linecap:butt;stroke-linejoin:miter;stroke-miterlimit:4;stroke-dasharray:none;stroke-opacity:1"/><path id="path3455" d="m 4164.6703,2705.446 c 0,0 33.7902,-13.267 51.7153,-10.806 17.9252,2.4611 48.887,24.0385 48.887,24.0385" style="fill:none;stroke:#2280c3;stroke-width:30;stroke-linecap:butt;stroke-linejoin:miter;stroke-miterlimit:4;stroke-dasharray:none;stroke-opacity:1"/><path style="fill:none;stroke:#2280c3;stroke-width:30;stroke-linecap:butt;stroke-linejoin:miter;stroke-miterlimit:4;stroke-dasharray:none;stroke-opacity:1" id="path3457" d="m 3889.3296,2763.3615 c 0,0 -35.995,10.9269 -53.9211,7.967 -14.1302,-2.3334 -40.8035,-25.9796 -40.8035,-25.9796"/><path style="fill:none;stroke:#2280c3;stroke-width:30;stroke-linecap:butt;stroke-linejoin:miter;stroke-miterlimit:4;stroke-dasharray:none;stroke-opacity:1" id="path3459" d="m 3929.436,2816.6791 -62.1318,52.4828"/><path style="fill:none;stroke:#2280c3;stroke-width:30;stroke-linecap:butt;stroke-linejoin:miter;stroke-miterlimit:4;stroke-dasharray:none;stroke-opacity:1" id="path3461" d="m 3976.0785,2858.8217 c 0,0 -19.8751,30.3772 -21.1189,48.4276 -1.2437,18.0506 13.5708,52.76 13.5708,52.76"/></g></g><g id="g3463" transform="matrix(0.99996802,-0.00799774,0.00799774,0.99996802,5.3215017,-36.586765)"><g id="g3465" transform="matrix(0.85611151,0.0022983,-0.0022983,0.85611151,-8353.4517,-3238.4429)"><path id="path3467" d="m -4813.2145,-1016.3878 a 103.92857,30.535715 0 0 1 -51.9643,26.44469 103.92857,30.535715 0 0 1 -103.9286,0 103.92857,30.535715 0 0 1 -51.9642,-26.44469 l 103.9285,0 z" transform="matrix(-0.96100274,-0.00757403,0.03169641,-1.9755784,-672.2633,559.16867)" style="fill:#2280c3;fill-opacity:1;stroke:none"/></g><g id="g3469" transform="matrix(0.9989276,-0.04629966,0.04629966,0.9989276,48.16036,-225.4029)"><g id="g3471" transform="matrix(0.99969214,0.02481181,-0.02481181,0.99969214,-28.086347,121.7935)"><path id="path3473" d="m 3960.3677,2570.1662 c 0,0 34.7698,-59.0487 59.3571,-58.1465 23.7285,0.8707 51.5613,59.9789 51.5613,59.9789" style="fill:#2280c3;fill-opacity:1;stroke:#2280c3;stroke-width:30;stroke-linecap:butt;stroke-linejoin:miter;stroke-miterlimit:4;stroke-dasharray:none;stroke-opacity:1" transform="matrix(0.85611151,0.0022983,-0.0022983,0.85611151,-8353.4517,-3238.4429)"/><g id="g3475" transform="matrix(0.66883656,-0.59118284,0.59118284,0.66883656,-8046.2411,-1973.2729)"><path id="path3477" d="m 2010.228,3062.2334 c -12.4929,-0.831 -26.7873,2.0545 -44.5625,9.0626 l 9.1562,23.25 c 15.6297,-6.1622 26.5273,-7.8555 33.75,-7.375 7.2228,0.4804 11.0497,2.5719 15.0626,6.25 8.0256,7.356 14.0854,23.8866 27.25,39.1874 l 18.9374,-16.3124 c -8.891,-10.3338 -14.4608,-27.7285 -29.2812,-41.3126 -7.4102,-6.792 -17.8196,-11.9189 -30.3125,-12.75 z" style="color:#000;font-style:normal;font-variant:normal;font-weight:400;font-stretch:normal;font-size:medium;line-height:normal;font-family:Sans;-inkscape-font-specification:Sans;text-indent:0;text-align:start;text-decoration:none;text-decoration-line:none;letter-spacing:normal;word-spacing:normal;text-transform:none;direction:ltr;block-progression:tb;writing-mode:lr-tb;baseline-shift:baseline;text-anchor:start;display:inline;overflow:visible;visibility:visible;fill:#2280c3;fill-opacity:1;stroke:none;stroke-width:25;marker:none;enable-background:accumulate"/><path style="color:#000;font-style:normal;font-variant:normal;font-weight:400;font-stretch:normal;font-size:medium;line-height:normal;font-family:Sans;-inkscape-font-specification:Sans;text-indent:0;text-align:start;text-decoration:none;text-decoration-line:none;letter-spacing:normal;word-spacing:normal;text-transform:none;direction:ltr;block-progression:tb;writing-mode:lr-tb;baseline-shift:baseline;text-anchor:start;display:inline;overflow:visible;visibility:visible;fill:#2280c3;fill-opacity:1;stroke:none;stroke-width:25;marker:none;enable-background:accumulate" id="path3479" d="m 1966.3786,3021.1066 c 1.6296,12.414 -0.3343,26.8639 -6.1893,45.0515 l -23.7888,-7.648 c 5.1483,-15.9924 6.14,-26.976 5.1978,-34.1531 -0.9421,-7.1772 -3.2744,-10.8623 -7.202,-14.6313 -7.855,-7.5379 -24.7399,-12.5263 -40.8525,-24.6837 l 15.0657,-19.9435 c 10.8822,8.2108 28.5979,12.6548 43.1035,26.5746 7.2528,6.9599 13.0359,17.0195 14.6656,29.4335 z"/></g></g></g></g></g></g><g id="g4337" transform="translate(834.03851,54.08122)"><rect style="fill:#2280c3;fill-opacity:1;stroke:none" id="rect4339" width="414.924" height="414.924" x="-668.181" y="-6.861" ry="207.462" transform="rotate(-0.48758953)"/><g id="g4341" transform="matrix(0.45098835,-0.00383802,0.00383802,0.45098835,-1294.9862,-1239.1057)"><circle id="circle4343" cx="1934.286" cy="3249.505" transform="translate(-102.30835,-27.185059)" style="fill:none;fill-opacity:1;stroke:#fff;stroke-width:50;stroke-linecap:round;stroke-linejoin:round;stroke-miterlimit:4;stroke-dasharray:none;stroke-opacity:1" r="334.286"/><path id="path4345" d="M 1830.0001,2831.4311 V 2946.508" style="fill:none;stroke:#fff;stroke-width:50;stroke-linecap:butt;stroke-linejoin:miter;stroke-miterlimit:4;stroke-dasharray:none;stroke-opacity:1"/><path style="fill:none;stroke:#fff;stroke-width:50;stroke-linecap:butt;stroke-linejoin:miter;stroke-miterlimit:4;stroke-dasharray:none;stroke-opacity:1" id="path4347" d="m 1441.3902,3224.3267 h 115.0769"/><path id="path4349" d="M 1834.2858,3612.9366 V 3497.8597" style="fill:none;stroke:#fff;stroke-width:50;stroke-linecap:butt;stroke-linejoin:miter;stroke-miterlimit:4;stroke-dasharray:none;stroke-opacity:1"/><path style="fill:none;stroke:#fff;stroke-width:50;stroke-linecap:butt;stroke-linejoin:miter;stroke-miterlimit:4;stroke-dasharray:none;stroke-opacity:1" id="path4351" d="M 2222.8957,3220.041 H 2107.8188"/></g><g id="g4353" transform="matrix(0.31989884,0.31791501,-0.31791501,0.31989884,834.99445,2054.966)"><g id="g4355" transform="matrix(0.89190599,-0.03664966,0.03664966,0.89190599,-6666.9428,-3698.2166)"><g id="g4357" transform="rotate(41.627194,2260.0797,87.900642)"><path id="path4359" d="m 4040.1964,2588.5464 c 0,0 53.7071,-12.0035 122.3866,119.8197 18.8112,36.1061 2.9086,106.3603 -14.7434,122.5618 -4.6287,4.2483 -145.9118,-169.7925 -145.0889,-172.888 2.0099,-7.56 -34.3676,30.0015 -37.9568,31.3735 -8.3568,-3.4891 145.6479,172.7523 137.6719,178.622 -25.5019,18.7671 -90.2912,15.7949 -122.8708,-10.8511 -115.0594,-94.1039 -92.3624,-144.2374 -92.3624,-144.2374 z" style="fill:#fff;fill-opacity:1;stroke:#fff;stroke-width:30;stroke-linecap:butt;stroke-linejoin:miter;stroke-miterlimit:4;stroke-dasharray:none;stroke-opacity:1"/><path id="path4361" d="m 4088.8931,2601.063 c 0,0 18.0334,-33.0127 18.789,-51.1658 0.5953,-14.3092 -17.1186,-45.2418 -17.1186,-45.2418" style="fill:none;stroke:#fff;stroke-width:30;stroke-linecap:butt;stroke-linejoin:miter;stroke-miterlimit:4;stroke-dasharray:none;stroke-opacity:1"/><path id="path4363" d="m 4132.918,2651.1938 64.0438,-50.1318" style="fill:none;stroke:#fff;stroke-width:30;stroke-linecap:butt;stroke-linejoin:miter;stroke-miterlimit:4;stroke-dasharray:none;stroke-opacity:1"/><path id="path4365" d="m 4164.6703,2705.446 c 0,0 33.7902,-13.267 51.7153,-10.806 17.9252,2.4611 48.887,24.0385 48.887,24.0385" style="fill:none;stroke:#fff;stroke-width:30;stroke-linecap:butt;stroke-linejoin:miter;stroke-miterlimit:4;stroke-dasharray:none;stroke-opacity:1"/><path style="fill:none;stroke:#fff;stroke-width:30;stroke-linecap:butt;stroke-linejoin:miter;stroke-miterlimit:4;stroke-dasharray:none;stroke-opacity:1" id="path4367" d="m 3889.3296,2763.3615 c 0,0 -35.995,10.9269 -53.9211,7.967 -14.1302,-2.3334 -40.8035,-25.9796 -40.8035,-25.9796"/><path style="fill:none;stroke:#fff;stroke-width:30;stroke-linecap:butt;stroke-linejoin:miter;stroke-miterlimit:4;stroke-dasharray:none;stroke-opacity:1" id="path4369" d="m 3929.436,2816.6791 -62.1318,52.4828"/><path style="fill:none;stroke:#fff;stroke-width:30;stroke-linecap:butt;stroke-linejoin:miter;stroke-miterlimit:4;stroke-dasharray:none;stroke-opacity:1" id="path4371" d="m 3976.0785,2858.8217 c 0,0 -19.8751,30.3772 -21.1189,48.4276 -1.2437,18.0506 13.5708,52.76 13.5708,52.76"/></g></g><g id="g4373" transform="rotate(-0.45824163,-4571.9043,-683.65703)"><g id="g4375" transform="matrix(0.85611151,0.0022983,-0.0022983,0.85611151,-8353.4517,-3238.4429)"><path id="path4377" d="m -4813.2145,-1016.3878 a 103.92857,30.535715 0 0 1 -51.9643,26.44469 103.92857,30.535715 0 0 1 -103.9286,0 103.92857,30.535715 0 0 1 -51.9642,-26.44469 l 103.9285,0 z" transform="matrix(-0.96100274,-0.00757403,0.03169641,-1.9755784,-672.2633,559.16867)" style="fill:#fff;fill-opacity:1;stroke:none"/></g><g id="g4379" transform="rotate(-2.6537238,-4841.6584,-1152.3315)"><g id="g4381" transform="rotate(1.4217579,-4921.9782,-1070.904)"><path id="path4383" d="m 3960.3677,2570.1662 c 0,0 34.7698,-59.0487 59.3571,-58.1465 23.7285,0.8707 51.5613,59.9789 51.5613,59.9789" style="fill:#fff;fill-opacity:1;stroke:#fff;stroke-width:30;stroke-linecap:butt;stroke-linejoin:miter;stroke-miterlimit:4;stroke-dasharray:none;stroke-opacity:1" transform="matrix(0.85611151,0.0022983,-0.0022983,0.85611151,-8353.4517,-3238.4429)"/><g id="g4385" transform="matrix(0.66883656,-0.59118284,0.59118284,0.66883656,-8046.2411,-1973.2729)"><path id="path4387" d="m 2010.228,3062.2334 c -12.4929,-0.831 -26.7873,2.0545 -44.5625,9.0626 l 9.1562,23.25 c 15.6297,-6.1622 26.5273,-7.8555 33.75,-7.375 7.2228,0.4804 11.0497,2.5719 15.0626,6.25 8.0256,7.356 14.0854,23.8866 27.25,39.1874 l 18.9374,-16.3124 c -8.891,-10.3338 -14.4608,-27.7285 -29.2812,-41.3126 -7.4102,-6.792 -17.8196,-11.9189 -30.3125,-12.75 z" style="color:#000;font-style:normal;font-variant:normal;font-weight:400;font-stretch:normal;font-size:medium;line-height:normal;font-family:Sans;-inkscape-font-specification:Sans;text-indent:0;text-align:start;text-decoration:none;text-decoration-line:none;letter-spacing:normal;word-spacing:normal;text-transform:none;writing-mode:lr-tb;direction:ltr;baseline-shift:baseline;text-anchor:start;display:inline;overflow:visible;visibility:visible;fill:#fff;fill-opacity:1;stroke:none;stroke-width:25;marker:none;enable-background:accumulate"/><path style="color:#000;font-style:normal;font-variant:normal;font-weight:400;font-stretch:normal;font-size:medium;line-height:normal;font-family:Sans;-inkscape-font-specification:Sans;text-indent:0;text-align:start;text-decoration:none;text-decoration-line:none;letter-spacing:normal;word-spacing:normal;text-transform:none;writing-mode:lr-tb;direction:ltr;baseline-shift:baseline;text-anchor:start;display:inline;overflow:visible;visibility:visible;fill:#fff;fill-opacity:1;stroke:none;stroke-width:25;marker:none;enable-background:accumulate" id="path4389" d="m 1966.3786,3021.1066 c 1.6296,12.414 -0.3343,26.8639 -6.1893,45.0515 l -23.7888,-7.648 c 5.1483,-15.9924 6.14,-26.976 5.1978,-34.1531 -0.9421,-7.1772 -3.2744,-10.8623 -7.202,-14.6313 -7.855,-7.5379 -24.7399,-12.5263 -40.8525,-24.6837 l 15.0657,-19.9435 c 10.8822,8.2108 28.5979,12.6548 43.1035,26.5746 7.2528,6.9599 13.0359,17.0195 14.6656,29.4335 z"/></g></g></g></g></g></g></g></svg>